<svg width="800" height="800" viewBox="0 0 800 800" fill="none" xmlns="http://www.w3.org/2000/svg">
<g clip-path="url(#clip0_1_5)">
<path d="M266.667 293.333C266.667 219.695 326.362 160 400 160C473.638 160 533.333 219.695 533.333 293.333C533.333 366.971 473.638 426.667 400 426.667C326.362 426.667 266.667 366.971 266.667 293.333Z" fill="#BEBEBE"/>
<path fill-rule="evenodd" clip-rule="evenodd" d="M400 0C179.086 0 0 179.086 0 400C0 620.912 179.086 800 400 800C620.912 800 800 620.912 800 400C800 179.086 620.912 0 400 0ZM53.3333 400C53.3333 208.541 208.541 53.3333 400 53.3333C591.461 53.3333 746.667 208.541 746.667 400C746.667 498.643 705.467 587.664 639.333 650.795C631.28 555.125 551.083 480 453.333 480H346.667C248.919 480 168.717 555.125 160.665 650.795C94.5339 587.664 53.3333 498.643 53.3333 400Z" fill="#BEBEBE"/>
</g>
<defs>
<clipPath id="clip0_1_5">
<rect width="800" height="800" fill="white"/>
</clipPath>
</defs>
</svg>
