<?xml version="1.0" encoding="iso-8859-1"?>
<!-- Uploaded to: SVG Repo, www.svgrepo.com, Generator: SVG Repo Mixer Tools -->
<svg height="800px" width="800px" version="1.1" id="Layer_1" xmlns="http://www.w3.org/2000/svg" xmlns:xlink="http://www.w3.org/1999/xlink" 
	 viewBox="0 0 473.931 473.931" xml:space="preserve">
<circle style="fill:#48A1AF;" cx="236.966" cy="236.966" r="236.966"/>
<g>
	<circle style="fill:#EACF60;" cx="301.96" cy="128.892" r="20.58"/>
	<circle style="fill:#EACF60;" cx="319.135" cy="156.02" r="20.58"/>
	<circle style="fill:#EACF60;" cx="334.401" cy="165.685" r="20.58"/>
	<circle style="fill:#EACF60;" cx="320.669" cy="216.195" r="20.58"/>
	<circle style="fill:#EACF60;" cx="298.218" cy="233.037" r="20.58"/>
	<circle style="fill:#EACF60;" cx="277.639" cy="233.037" r="20.58"/>
	<circle style="fill:#EACF60;" cx="335.636" cy="194.059" r="20.58"/>
	<circle style="fill:#EACF60;" cx="298.218" cy="212.453" r="20.58"/>
</g>
<g>
	<circle style="fill:#DFC65F;" cx="233.187" cy="214.964" r="19.592"/>
	<circle style="fill:#DFC65F;" cx="206.246" cy="218.631" r="19.592"/>
	<circle style="fill:#DFC65F;" cx="171.62" cy="227.409" r="19.596"/>
	<circle style="fill:#DFC65F;" cx="172.346" cy="257.13" r="19.592"/>
	<circle style="fill:#DFC65F;" cx="174.216" cy="285.833" r="19.592"/>
	<circle style="fill:#DFC65F;" cx="215.376" cy="275.206" r="19.592"/>
	<circle style="fill:#DFC65F;" cx="201.022" cy="292.269" r="19.588"/>
	<circle style="fill:#DFC65F;" cx="218.93" cy="300.164" r="19.592"/>
	<circle style="fill:#DFC65F;" cx="211.559" cy="246.305" r="19.592"/>
	<circle style="fill:#DFC65F;" cx="194.572" cy="264.355" r="19.599"/>
	<circle style="fill:#DFC65F;" cx="282.877" cy="302.821" r="20.363"/>
	<circle style="fill:#DFC65F;" cx="305.178" cy="285.421" r="20.359"/>
	<circle style="fill:#DFC65F;" cx="320.444" cy="244.374" r="20.359"/>
	<circle style="fill:#DFC65F;" cx="314.832" cy="269.294" r="20.359"/>
	<circle style="fill:#DFC65F;" cx="295.337" cy="230.65" r="20.363"/>
	<path style="fill:#DFC65F;" d="M269.175,196.326c-11.18,1.242-19.229,11.308-17.987,22.484
		c1.25,11.173,11.311,19.221,22.495,17.979c11.165-1.25,19.221-11.311,17.972-22.484
		C290.413,203.133,280.351,195.08,269.175,196.326z"/>
	<circle style="fill:#DFC65F;" cx="251.184" cy="218.818" r="20.355"/>
	<circle style="fill:#DFC65F;" cx="285.945" cy="263.345" r="20.363"/>
	<circle style="fill:#DFC65F;" cx="273.672" cy="236.779" r="20.359"/>
</g>
<g>
	<circle style="fill:#EACF60;" cx="224.992" cy="130.501" r="24.262"/>
	<circle style="fill:#EACF60;" cx="192.551" cy="139.53" r="24.262"/>
	<circle style="fill:#EACF60;" cx="172.158" cy="170.392" r="24.265"/>
	<path style="fill:#EACF60;" d="M171.766,227.652c12.875,3.704,26.323-3.734,30.035-16.606c3.697-12.875-3.742-26.323-16.617-30.028
		c-12.868-3.704-26.316,3.731-30.028,16.606C151.455,210.496,158.89,223.944,171.766,227.652z"/>
	<circle style="fill:#EACF60;" cx="198.426" cy="230.732" r="24.258"/>
	<circle style="fill:#EACF60;" cx="221.737" cy="237.452" r="24.254"/>
	<path style="fill:#EACF60;" d="M196.978,195.892c12.864,3.704,26.308-3.734,30.02-16.617c3.704-12.864-3.734-26.312-16.606-30.013
		c-12.875-3.712-26.323,3.727-30.028,16.602C176.671,178.74,184.095,192.196,196.978,195.892z"/>
	<circle style="fill:#EACF60;" cx="205.127" cy="207.406" r="24.262"/>
</g>
<g>
	<path style="fill:#77B7B7;" d="M287.783,301.743l-26.851-13.309l-36.314,4.842l-7.308,4.767l13.096,175.724
		c2.178,0.06,4.348,0.165,6.541,0.165c18.163,0,35.816-2.11,52.807-5.983l-3.996-87.426L287.783,301.743z"/>
	<polygon style="fill:#77B7B7;" points="271.543,287.015 311.85,285.111 272.961,286.832 	"/>
</g>
<g>
	<polygon style="fill:#7F807D;" points="259.252,287.603 260.932,288.434 271.543,287.015 	"/>
	<path style="fill:#7F807D;" d="M341.57,289.167l-70.027-2.148l-10.612,1.418l26.851,13.309l-2.024,78.783l3.996,87.426
		c8.318-1.893,16.464-4.217,24.422-6.96c1.171-0.4,2.346-0.763,3.51-1.186l3.027-26.185l14.567-35.333l0,0l18.825,44.639
		c11.955-6.817,23.3-14.6,33.844-23.326L341.57,289.167z"/>
	<path style="fill:#7F807D;" d="M217.31,298.046l7.308-4.767l4.393-2.87l-74.835,14.032l-17.414,5.822L94.06,425.988
		c11.356,8.599,23.517,16.157,36.336,22.626l25.878-88.403l0.284,7.499l0.314,8.464l1.051,4.632l19.352,85.54
		c2.361,0.614,4.763,1.134,7.154,1.673c14.844,3.36,30.211,5.321,45.975,5.751L217.31,298.046z"/>
</g>
<path style="fill:#CE945F;" d="M244.109,210.444c16.056-0.299,29.874,11.308,30.877,25.934l4.165,61.226
	c0.995,14.612-57.14,15.682-58.136,1.059l-4.165-61.215C215.847,222.829,228.053,210.736,244.109,210.444z"/>
<path style="fill:#D69D61;" d="M298.488,221.553c1.212,24.681-19.322,44.119-45.867,43.423l0,0
	c-26.544-0.703-49.043-21.272-50.259-45.953l-5.066-103.374c-1.205-24.677,19.33-44.119,45.874-43.423l0,0
	c26.537,0.703,49.036,21.272,50.252,45.949L298.488,221.553z"/>
<g>
	<path style="fill:#EACE57;" d="M210.418,132.866c7.416,5.774,18.133,4.445,23.914-2.982c5.796-7.431,4.464-18.148-2.96-23.929
		c-7.439-5.789-18.155-4.46-23.932,2.967C201.64,116.361,202.972,127.07,210.418,132.866z"/>
	<path style="fill:#EACE57;" d="M200.45,126.516c7.439,5.792,18.148,4.456,23.932-2.982c5.788-7.424,4.449-18.133-2.982-23.929
		c-7.424-5.781-18.14-4.445-23.921,2.99C191.694,110.015,193.034,120.735,200.45,126.516z"/>
	<circle style="fill:#EACE57;" cx="176.012" cy="123.665" r="17.059"/>
	<path style="fill:#EACE57;" d="M156.552,158.101c7.424,5.774,18.155,4.445,23.932-2.982c5.781-7.431,4.449-18.151-2.982-23.932
		c-7.424-5.785-18.133-4.445-23.929,2.978C147.796,141.584,149.124,152.305,156.552,158.101z"/>
	<path style="fill:#EACE57;" d="M180.435,187.537c7.439,5.803,18.14,4.456,23.929-2.96c5.788-7.435,4.456-18.14-2.982-23.932
		c-7.424-5.785-18.148-4.456-23.921,2.971C171.679,171.04,173.008,181.76,180.435,187.537z"/>
	<path style="fill:#EACE57;" d="M177.722,205.224c7.416,5.789,18.148,4.449,23.929-2.975c5.788-7.431,4.445-18.144-2.982-23.932
		c-7.416-5.777-18.133-4.453-23.932,2.971C168.959,188.723,170.299,199.443,177.722,205.224z"/>
	<path style="fill:#EACE57;" d="M195.803,150.056c7.424,5.789,18.148,4.445,23.932-2.982c5.774-7.424,4.445-18.14-2.982-23.929
		c-7.427-5.789-18.133-4.449-23.932,2.975C187.047,133.562,188.371,144.267,195.803,150.056z"/>
	<path style="fill:#EACE57;" d="M187.155,172.839c7.446,5.8,18.155,4.46,23.932-2.971c5.796-7.431,4.456-18.155-2.975-23.932
		c-7.431-5.777-18.14-4.445-23.929,2.982C178.403,156.349,179.732,167.066,187.155,172.839z"/>
</g>
<g>
	<path style="fill:#EACF60;" d="M282.974,129.562c-7.416,5.774-18.14,4.445-23.921-2.982c-5.796-7.431-4.464-18.148,2.96-23.929
		c7.439-5.789,18.155-4.46,23.932,2.967C291.745,113.057,290.413,123.766,282.974,129.562z"/>
	<path style="fill:#EACF60;" d="M244.539,129.944c-18.847,0.022-31.27-7.775-27.697-17.41c3.566-9.654,21.762-17.493,40.632-17.519
		c18.907-0.019,31.322,7.775,27.749,17.414C281.657,122.082,263.454,129.921,244.539,129.944z"/>
	<path style="fill:#EACF60;" d="M296.677,126.019c-7.431,5.792-18.148,4.456-23.932-2.982c-5.781-7.424-4.449-18.133,2.982-23.929
		c7.424-5.781,18.14-4.445,23.921,2.99C305.432,109.518,304.093,120.238,296.677,126.019z"/>
	<circle style="fill:#EACF60;" cx="322.502" cy="119.4" r="17.059"/>
	<path style="fill:#EACF60;" d="M343.228,155.732c-7.424,5.774-18.155,4.445-23.932-2.982c-5.781-7.431-4.449-18.151,2.982-23.932
		c7.424-5.785,18.133-4.445,23.929,2.978C351.984,139.216,350.655,149.94,343.228,155.732z"/>
	<path style="fill:#EACF60;" d="M322.622,198.268c-7.439,5.803-18.14,4.456-23.929-2.96c-5.788-7.435-4.456-18.14,2.982-23.932
		c7.424-5.785,18.148-4.456,23.921,2.971C331.374,181.767,330.046,192.487,322.622,198.268z"/>
	<path style="fill:#EACF60;" d="M305.533,146.752c-7.424,5.789-18.14,4.445-23.932-2.982c-5.774-7.424-4.445-18.14,2.982-23.929
		c7.427-5.789,18.133-4.449,23.932,2.975C314.289,130.254,312.965,140.963,305.533,146.752z"/>
	<path style="fill:#EACF60;" d="M314.963,168.604c-7.446,5.8-18.155,4.46-23.932-2.971c-5.796-7.427-4.456-18.155,2.975-23.932
		c7.431-5.777,18.14-4.445,23.929,2.982C323.715,152.118,322.386,162.83,314.963,168.604z"/>
	<path style="fill:#EACF60;" d="M317.769,182.168c-7.446,5.8-18.155,4.46-23.932-2.971c-5.796-7.427-4.456-18.155,2.975-23.932
		c7.431-5.777,18.14-4.445,23.929,2.982C326.521,165.681,325.193,176.394,317.769,182.168z"/>
	<path style="fill:#EACF60;" d="M206.605,101.548c1.325,9.306-5.16,17.945-14.477,19.27c-9.332,1.332-17.964-5.145-19.293-14.462
		c-1.325-9.332,5.152-17.972,14.477-19.293C196.645,85.731,205.273,92.208,206.605,101.548z"/>
	<path style="fill:#EACF60;" d="M227.469,82.573c1.328,9.332-5.152,17.964-14.484,19.285c-9.317,1.328-17.942-5.152-19.278-14.481
		c-1.325-9.313,5.16-17.949,14.484-19.266C217.501,66.772,226.137,73.26,227.469,82.573z"/>
	<path style="fill:#EACF60;" d="M252.176,73.896c1.336,9.321-5.152,17.953-14.469,19.285c-9.332,1.325-17.964-5.152-19.3-14.477
		c-1.325-9.321,5.167-17.96,14.477-19.278C242.208,58.106,250.855,64.579,252.176,73.896z"/>
	<path style="fill:#EACF60;" d="M273.949,79.09c1.325,9.313-5.16,17.96-14.477,19.281c-9.324,1.325-17.964-5.156-19.285-14.477
		c-1.328-9.317,5.152-17.945,14.477-19.285C263.974,63.281,272.61,69.769,273.949,79.09z"/>
	<path style="fill:#EACF60;" d="M301.126,86.184c1.336,9.339-5.145,17.957-14.462,19.289c-9.324,1.325-17.949-5.152-19.285-14.484
		c-1.328-9.317,5.152-17.96,14.469-19.278C291.165,70.383,299.805,76.863,301.126,86.184z"/>
	<path style="fill:#EACF60;" d="M318.076,96.96c1.328,9.31-5.16,17.953-14.477,19.278c-9.324,1.328-17.949-5.164-19.278-14.477
		c-1.328-9.309,5.145-17.953,14.469-19.293C308.108,81.155,316.744,87.643,318.076,96.96z"/>
	<path style="fill:#EACF60;" d="M249.392,93.544c1.328,9.321-5.16,17.953-14.484,19.289c-9.317,1.317-17.949-5.164-19.278-14.484
		c-1.336-9.317,5.145-17.945,14.477-19.285C239.424,77.75,248.064,84.22,249.392,93.544z"/>
	<path style="fill:#EACF60;" d="M273.496,97.929c1.328,9.343-5.152,17.972-14.469,19.289c-9.332,1.332-17.972-5.156-19.293-14.477
		s5.16-17.949,14.484-19.278S272.179,88.616,273.496,97.929z"/>
</g>
</svg>