<?xml version="1.0" encoding="iso-8859-1"?>
<!-- Uploaded to: SVG Repo, www.svgrepo.com, Generator: SVG Repo Mixer Tools -->
<svg version="1.1" id="Layer_1" xmlns="http://www.w3.org/2000/svg" xmlns:xlink="http://www.w3.org/1999/xlink" 
	 viewBox="0 0 473.931 473.931" xml:space="preserve">
<circle style="fill:#22A85B;" cx="236.966" cy="236.966" r="236.966"/>
<g>
	<path style="fill:#DCB282;" d="M120.934,352.272l-7.708-34.084l-72.482,51.685c3.79,5.579,7.832,10.975,12.071,16.202
		L120.934,352.272z"/>
	<path style="fill:#DCB282;" d="M392.432,358.876l31.012,24.198c6.14-7.828,11.824-16.026,16.961-24.606l-33.859-36.16
		L392.432,358.876z"/>
</g>
<g>
	<path style="fill:#5A8AA3;" d="M391.86,360.361l0.572-1.482l-54.806-42.772l3.551-48.388l18.398,4.419l46.974,50.17l1.07-2.78
		l-45.081-53.447l-76.942-9.235l-71.801,7.753l-41.548,12.707l-62.177,26.918l3.158,13.961l24.849-17.714l27.068-17.347
		l-2.499,48.452l-41.709,20.692l0.326,1.441l49.44-13.56l-8.962,121.525c23.637,7.906,48.909,12.258,75.213,12.258
		c37.028,0,72.074-8.505,103.291-23.652l-0.868-130.617L391.86,360.361z"/>
	<polygon style="fill:#5A8AA3;" points="165.143,283.124 138.075,300.471 113.226,318.184 120.934,352.272 162.643,331.58 	"/>
	<polygon style="fill:#5A8AA3;" points="341.177,267.719 337.626,316.108 392.432,358.876 406.55,322.308 359.576,272.138 	"/>
</g>
<g>
	<path style="fill:#DCB282;" d="M294.903,208.596c2.945,23.566-15.323,43.681-40.808,44.942l0,0
		c-25.489,1.246-48.538-16.838-51.483-40.404l-12.344-98.685c-2.949-23.566,15.326-43.685,40.808-44.942l0,0
		c25.493-1.253,48.534,16.83,51.479,40.392L294.903,208.596z"/>
	<path style="fill:#DCB282;" d="M278.402,278.488c-0.625,14.073-13.586,24.299-28.95,22.851l0,0
		c-15.36-1.459-27.315-14.035-26.682-28.104l2.627-58.914c0.625-14.065,13.583-24.295,28.946-22.843l0,0
		c15.364,1.452,27.315,14.032,26.679,28.093L278.402,278.488z"/>
</g>
<g>
	<polygon style="fill:#5D250E;" points="198.62,231.196 200.315,195.327 236.49,233.849 278.851,228.15 291.73,186.426 
		307.614,209.295 311.894,241.935 293.575,269.429 271.738,283.053 241.856,278.986 213.045,263.798 	"/>
	<path style="fill:#5D250E;" d="M185.154,117.405c0,0,112.511,3.319,116.223-11.54l-18.978-1.968c0,0,19.221-5.994,19.94-15.39
		l-21.205,4.789c0,0,7.461-13.62,6.035-23.738l-14.716,8.554C272.453,78.113,190.736,31.891,185.154,117.405z"/>
</g>
<g>
	<path style="fill:#4D4C4C;" d="M282.462,129.731c-10.271,3.528-15.367,15.82-11.371,27.461
		c3.989,11.633,15.562,18.204,25.837,14.675c10.279-3.528,15.375-15.816,11.382-27.457
		C304.31,132.773,292.744,126.202,282.462,129.731z M294.862,165.846c-7.341,2.518-15.611-2.17-18.462-10.481
		s0.789-17.089,8.131-19.611c7.341-2.518,15.607,2.178,18.458,10.488C305.84,154.553,302.203,163.328,294.862,165.846z"/>
	<path style="fill:#4D4C4C;" d="M235.521,134.741c-10.275,3.528-15.367,15.82-11.375,27.461
		c3.989,11.629,15.558,18.204,25.837,14.675c10.279-3.528,15.371-15.82,11.379-27.453
		C257.373,137.787,245.804,131.212,235.521,134.741z M247.918,170.853c-7.341,2.518-15.607-2.17-18.458-10.481
		c-2.855-8.31,0.782-17.089,8.127-19.611c7.341-2.518,15.603,2.174,18.458,10.484C258.9,159.56,255.263,168.338,247.918,170.853z"/>
	<polygon style="fill:#4D4C4C;" points="226.369,158.209 194.931,151.852 194.583,148.668 227.013,154.976 	"/>
	
		<rect x="264.4" y="149.583" transform="matrix(-0.0731 -0.9973 0.9973 -0.0731 131.7539 430.7616)" style="fill:#4D4C4C;" width="3.296" height="9.145"/>
	<polygon style="fill:#4D4C4C;" points="306.181,150.273 287.378,147.452 286.899,144.125 306.671,147.018 	"/>
</g>
<g style="opacity:0.6;">
	<path style="fill:#DCEFED;" d="M302.989,146.239c-2.851-8.31-11.117-13.006-18.458-10.488c0,0,3.839,6.81,6.395,14.402
		c2.556,7.585,3.936,15.689,3.936,15.689C302.203,163.328,305.84,154.55,302.989,146.239z"/>
	<path style="fill:#A9D5D0;" d="M284.531,135.755c-7.341,2.522-10.982,11.304-8.131,19.611s11.121,12.999,18.462,10.481
		c0,0-1.381-8.105-3.936-15.689C288.374,142.565,284.531,135.755,284.531,135.755z"/>
</g>
<g style="opacity:0.6;">
	<path style="fill:#DCEFED;" d="M256.049,151.145c-2.855-8.31-11.121-13.006-18.462-10.484c0,0,3.847,6.81,6.398,14.402
		c2.552,7.585,3.936,15.685,3.936,15.685C255.259,168.233,258.9,159.459,256.049,151.145z"/>
	<path style="fill:#A9D5D0;" d="M237.587,140.66c-7.341,2.522-10.982,11.304-8.127,19.611c2.847,8.31,11.12,12.999,18.462,10.477
		c0,0-1.384-8.101-3.936-15.685C241.437,147.47,237.587,140.66,237.587,140.66z"/>
</g>
</svg>