<?xml version="1.0" encoding="iso-8859-1"?>
<!-- Uploaded to: SVG Repo, www.svgrepo.com, Generator: SVG Repo Mixer Tools -->
<svg height="800px" width="800px" version="1.1" id="Layer_1" xmlns="http://www.w3.org/2000/svg" xmlns:xlink="http://www.w3.org/1999/xlink" 
	 viewBox="0 0 473.931 473.931" xml:space="preserve">
<circle style="fill:#337180;" cx="236.966" cy="236.966" r="236.966"/>
<g>
	<path style="fill:#D69D61;" d="M292.591,284.022l0.015,0.03l18.308-0.812l27.955,43.73l4.969,42.312l-7.76,16.946l22.926,53.874
		c8.06-4.853,15.786-10.208,23.188-15.959l-37.882-142.527L292.591,284.022z"/>
	<path style="fill:#D69D61;" d="M152.51,370.528l15.641-67.43l5.13-1.433l-36.243,6.327L94.247,426.13
		c9.253,6.993,19.031,13.332,29.276,18.933l29.137-74.244L152.51,370.528z"/>
</g>
<path style="fill:#D5C427;" d="M338.865,326.966l-27.955-43.73l-18.308,0.812l-20.58,0.909l-74.498,9.931l-24.247,6.773l-5.13,1.433
	l-15.641,67.43l0.153,0.292l13.979,26.237l12.569,26.896l4.456,43.887c17.13,3.94,34.948,6.092,53.275,6.092
	c26.544,0,52.04-4.43,75.864-12.479l7.57-40.95l15.689-34.278l7.76-16.946L338.865,326.966z"/>
<path style="fill:#B2723A;" d="M252.023,90.768c0,0-11.787,146.988,75.004,176.458c0,0-5.093-7.992-12.681-42.922
	c0,0,7.397,19.057,26.739,17.53c0,0-27.221-39.266-28.647-68.613c0,0-0.49,14.14,27.412,19.255c0,0-28.553-42.731-31.345-75.539
	C308.508,116.937,285.612,79.718,252.023,90.768z"/>
<path style="fill:#CE945F;" d="M243.173,208.573c16.056-0.299,29.874,11.308,30.877,25.934l4.165,61.226
	c0.995,14.612-20.834,90.098-20.834,90.098s-36.306-74.416-37.302-89.039l-4.165-61.215
	C214.912,220.958,227.117,208.865,243.173,208.573z"/>
<g>
	<path style="fill:#9F6029;" d="M241.516,183.324c0,0-27.349,137.959-86.337,152.118c0,0,5.811-7.484,16.598-41.56
		c0,0-9.126,18.293-28.247,14.978c0,0,30.724-36.579,34.866-65.668c0,0-0.827,14.125-29.077,16.632c0,0,32.381-39.902,38.185-72.31
		C187.5,187.518,209.097,169.217,241.516,183.324z"/>
	<path style="fill:#9F6029;" d="M245.265,204.087c0,0,16.939,139.616,74.704,158.157c0,0-5.231-7.895-13.433-42.682
		c0,0,7.73,18.918,27.042,17.051c0,0-27.902-38.783-29.855-68.1c0,0-0.236,14.151,27.749,18.769c0,0-29.298-42.215-32.662-74.97
		C298.809,212.307,278.649,192.446,245.265,204.087z"/>
</g>
<path style="fill:#D69D61;" d="M297.552,219.682c1.212,24.681-19.322,44.119-45.867,43.423l0,0
	c-26.544-0.703-49.043-21.272-50.259-45.953l-5.066-103.374c-1.205-24.677,19.33-44.119,45.874-43.423l0,0
	c26.537,0.703,49.036,21.272,50.252,45.949L297.552,219.682z"/>
<g>
	<path style="fill:#BE7C3F;" d="M260.73,70.469c0,0-27.349,137.955-86.345,152.117c0,0,5.818-7.484,16.606-41.56
		c0,0-9.134,18.286-28.247,14.978c0,0,30.724-36.583,34.866-65.672c0,0-0.827,14.125-29.077,16.636c0,0,32.381-39.902,38.185-72.317
		C206.714,74.656,228.307,56.358,260.73,70.469z"/>
	<path style="fill:#BE7C3F;" d="M251.768,89.387c0,0,26.031,40.86,52.048,49.204c0,0-13.01-1.848-10.245-35.289
		c0,0-0.007-27.872-27.872-37.144C265.699,66.162,247.113,66.169,251.768,89.387z"/>
</g>
</svg>