<?xml version="1.0" encoding="iso-8859-1"?>
<!-- Uploaded to: SVG Repo, www.svgrepo.com, Generator: SVG Repo Mixer Tools -->
<svg height="800px" width="800px" version="1.1" id="Layer_1" xmlns="http://www.w3.org/2000/svg" xmlns:xlink="http://www.w3.org/1999/xlink" 
	 viewBox="0 0 473.931 473.931" xml:space="preserve">
<circle style="fill:#64A80D;" cx="236.966" cy="236.966" r="236.966"/>
<g>
	<path style="fill:#DDAA7C;" d="M350.857,281.616l-51.719,2.406l0.015,0.03l18.308-0.812l27.955,43.73l4.969,42.312l-7.76,16.946
		l21.538,50.622c8.157-5.205,16.011-10.832,23.446-16.961L350.857,281.616z"/>
	<path style="fill:#DDAA7C;" d="M159.058,370.528l15.641-67.43l5.13-1.433l-36.243,6.327L99.43,429.887
		c9.362,6.687,19.229,12.703,29.534,17.99l30.248-77.058L159.058,370.528z"/>
</g>
<path style="fill:#557F0D;" d="M345.413,326.966l-27.955-43.73l-18.308,0.812l-20.58,0.909l-74.498,9.931l-24.247,6.773l-5.13,1.433
	l-15.641,67.43l0.153,0.292l13.979,26.237l12.569,26.896l4.602,45.376c15.061,3.005,30.638,4.602,46.581,4.602
	c29.16,0,57.069-5.295,82.865-14.926l7.117-38.503l15.689-34.278l7.76-16.946L345.413,326.966z"/>
<path style="fill:#B2723A;" d="M258.571,90.768c0,0-11.787,146.988,75.004,176.458c0,0-5.093-7.992-12.681-42.922
	c0,0,7.397,19.057,26.739,17.53c0,0-27.221-39.266-28.647-68.613c0,0-0.49,14.14,27.412,19.255c0,0-28.553-42.731-31.345-75.539
	C315.056,116.937,292.16,79.718,258.571,90.768z"/>
<path style="fill:#D69D61;" d="M249.721,208.573c16.056-0.299,29.874,11.308,30.877,25.934l4.165,61.226
	c0.995,14.612-20.834,90.098-20.834,90.098s-36.306-74.416-37.302-89.039l-4.165-61.215
	C221.46,220.958,233.665,208.865,249.721,208.573z"/>
<path style="fill:#DDAA7C;" d="M304.1,219.682c1.212,24.681-19.322,44.119-45.867,43.423l0,0
	c-26.544-0.703-49.043-21.272-50.259-45.953l-5.066-103.374c-1.205-24.677,19.33-44.119,45.874-43.423l0,0
	c26.537,0.703,49.036,21.272,50.252,45.949L304.1,219.682z"/>
<g>
	<path style="fill:#BE7C3F;" d="M267.278,70.469c0,0-31.03,192.364-90.03,206.526c0,0,5.818-7.483,16.606-41.56
		c0,0-32.411,14.93-51.528,11.626c0,0,57.69-87.643,61.833-116.728c0,0-0.827,14.125-29.077,16.636c0,0,32.381-39.902,38.185-72.317
		C213.262,74.656,234.855,56.358,267.278,70.469z"/>
	<path style="fill:#BE7C3F;" d="M258.316,89.387c0,0,38.843,68.257,64.86,76.609c0,0-14.361-33.354-12.475-51.135
		c0,0-10.589-39.427-38.454-48.699C272.247,66.162,253.661,66.169,258.316,89.387z"/>
</g>
</svg>